<svg width="16" height="16" viewBox="0 0 16 16" fill="none" xmlns="http://www.w3.org/2000/svg">
<g clip-path="url(#clip0_290_6145)">
<path d="M11.9999 13.333C11.9999 12.2721 11.5785 11.2547 10.8283 10.5046C10.0782 9.75443 9.06078 9.33301 7.99992 9.33301M7.99992 9.33301C6.93905 9.33301 5.92164 9.75443 5.17149 10.5046C4.42135 11.2547 3.99992 12.2721 3.99992 13.333M7.99992 9.33301C9.47268 9.33301 10.6666 8.1391 10.6666 6.66634C10.6666 5.19358 9.47268 3.99967 7.99992 3.99967C6.52716 3.99967 5.33325 5.19358 5.33325 6.66634C5.33325 8.1391 6.52716 9.33301 7.99992 9.33301ZM14.6666 7.99967C14.6666 11.6816 11.6818 14.6663 7.99992 14.6663C4.31802 14.6663 1.33325 11.6816 1.33325 7.99967C1.33325 4.31778 4.31802 1.33301 7.99992 1.33301C11.6818 1.33301 14.6666 4.31778 14.6666 7.99967Z" stroke="#EAEBEC" stroke-linecap="round" stroke-linejoin="round"/>
</g>
<defs>
<clipPath id="clip0_290_6145">
<rect width="16" height="16" fill="white"/>
</clipPath>
</defs>
</svg>
