<svg width="25" height="15" viewBox="0 0 25 15" fill="none" xmlns="http://www.w3.org/2000/svg">
<ellipse cx="11.842" cy="7.68341" rx="2.18623" ry="2.19513" fill="#24A1DD"/>
<ellipse cx="9.4736" cy="3.65873" rx="1.45749" ry="1.46342" fill="#24A1DD"/>
<ellipse cx="14.7569" cy="11.3413" rx="1.45749" ry="1.46342" transform="rotate(-180 14.7569 11.3413)" fill="#24A1DD"/>
<ellipse cx="7.28745" cy="1.09756" rx="1.09312" ry="1.09756" fill="#24A1DD"/>
<ellipse cx="16.9435" cy="13.9024" rx="1.09312" ry="1.09756" transform="rotate(-180 16.9435 13.9024)" fill="#24A1DD"/>
<ellipse cx="4.37236" cy="0.914635" rx="0.910931" ry="0.914635" fill="#24A1DD"/>
<ellipse cx="19.8586" cy="14.0854" rx="0.910931" ry="0.914635" transform="rotate(-180 19.8586 14.0854)" fill="#24A1DD"/>
<ellipse cx="2.18632" cy="2.74374" rx="0.910931" ry="0.914635" fill="#24A1DD"/>
<ellipse cx="22.0446" cy="12.2563" rx="0.910931" ry="0.914635" transform="rotate(-180 22.0446 12.2563)" fill="#24A1DD"/>
<ellipse cx="0.637652" cy="4.48204" rx="0.637652" ry="0.640245" fill="#24A1DD"/>
<ellipse cx="23.5933" cy="10.518" rx="0.637652" ry="0.640245" transform="rotate(-180 23.5933 10.518)" fill="#24A1DD"/>
</svg>
